<?xml version="1.0" encoding="utf-8"?>
<!-- Generator: Adobe Illustrator 19.1.0, SVG Export Plug-In . SVG Version: 6.00 Build 0)  -->
<svg version="1.1" id="Layer_1" xmlns="http://www.w3.org/2000/svg" xmlns:xlink="http://www.w3.org/1999/xlink" x="0px" y="0px"
	 viewBox="0 0 64 56.4" style="enable-background:new 0 0 64 56.4;" xml:space="preserve">
<style type="text/css">
	.st0{opacity:0.25;fill:url(#SVGID_1_);stroke:url(#SVGID_2_);stroke-miterlimit:10;}
	.st1{fill:#F1623E;stroke:#404041;stroke-miterlimit:10;}
	.st2{fill:#58595B;stroke:#404041;stroke-miterlimit:10;}
</style>
<g>
	
		<radialGradient id="SVGID_1_" cx="-39.9466" cy="-22.6217" r="18.875" gradientTransform="matrix(1.6423 0 0 0.3311 98.0846 57.1228)" gradientUnits="userSpaceOnUse">
		<stop  offset="0" style="stop-color:#808184"/>
		<stop  offset="0.9987" style="stop-color:#FFFFFF"/>
	</radialGradient>
	
		<radialGradient id="SVGID_2_" cx="-39.9466" cy="-22.6217" r="19.375" gradientTransform="matrix(1.6423 0 0 0.3311 98.0846 57.1228)" gradientUnits="userSpaceOnUse">
		<stop  offset="0" style="stop-color:#808184"/>
		<stop  offset="0.1806" style="stop-color:#FFFFFF;stop-opacity:0"/>
		<stop  offset="0.6606" style="stop-color:#FFFFFF;stop-opacity:0"/>
	</radialGradient>
	<ellipse class="st0" cx="32.5" cy="49.6" rx="31" ry="6.2"/>
	<path class="st1" d="M61.5,23.2c-1.1,2.2-2.6,4-4.4,5.4c0,0,0,0,0,0c-2.5,2.5-8.9,5.5-14.6,9.4c-4.7,3.3-8.5,7.6-10.3,9.9
		c-0.1,0.2-0.2,0.3-0.4,0.5c-0.1-0.1-0.2-0.3-0.4-0.5c-1.8-2.3-5.5-6.7-10.3-9.9c-5.8-4-12.2-6.9-14.6-9.4c0,0,0,0,0,0
		c-1.8-1.4-3.3-3.2-4.4-5.4C-1.7,15.4,1.5,6,9.3,2.1c7.8-3.8,17.3-0.6,21.1,7.2c0.7,1.3,1.1,2.7,1.4,4.1c0.2-1.4,0.7-2.8,1.4-4.1
		c3.9-7.8,13.3-11,21.1-7.2C62.1,6,65.3,15.4,61.5,23.2z"/>
	<circle class="st2" cx="47.6" cy="15.7" r="6.2"/>
	<circle class="st2" cx="16" cy="15.7" r="6.2"/>
</g>
</svg>
