<?xml version="1.0" encoding="utf-8"?>
<!-- Generator: Adobe Illustrator 19.1.0, SVG Export Plug-In . SVG Version: 6.00 Build 0)  -->
<svg version="1.1" id="Layer_1" xmlns="http://www.w3.org/2000/svg" xmlns:xlink="http://www.w3.org/1999/xlink" x="0px" y="0px"
	 viewBox="0 0 723.1 194.9" style="enable-background:new 0 0 723.1 194.9;" xml:space="preserve">
<style type="text/css">
	.st0{opacity:0.25;fill:url(#SVGID_1_);stroke:url(#SVGID_2_);stroke-miterlimit:10;}
	.st1{fill:#6D6E70;stroke:#404041;stroke-width:0.5;stroke-miterlimit:10;}
	.st2{fill:#D0D2D3;stroke:#404041;stroke-width:0.5;stroke-miterlimit:10;}
	.st3{fill:#F1623E;stroke:#404041;stroke-miterlimit:10;}
	.st4{fill:#58595B;stroke:#404041;stroke-miterlimit:10;}
	.st5{fill:none;}
	.st6{fill:#404041;}
	.st7{font-family:'Kefa-Regular';}
	.st8{font-size:97.5203px;}
	.st9{font-family:'HelveticaNeue-Thin';}
	.st10{font-size:65.0135px;}
</style>
<g>
	
		<radialGradient id="SVGID_1_" cx="558.7955" cy="228.285" r="31.1764" gradientTransform="matrix(1 0 0 0.3311 0 102.6203)" gradientUnits="userSpaceOnUse">
		<stop  offset="0" style="stop-color:#808184"/>
		<stop  offset="0.9987" style="stop-color:#FFFFFF"/>
	</radialGradient>
	
		<radialGradient id="SVGID_2_" cx="558.7955" cy="228.285" r="31.6764" gradientTransform="matrix(1 0 0 0.3311 0 102.6203)" gradientUnits="userSpaceOnUse">
		<stop  offset="0" style="stop-color:#808184"/>
		<stop  offset="0.1806" style="stop-color:#FFFFFF;stop-opacity:0"/>
		<stop  offset="0.6606" style="stop-color:#FFFFFF;stop-opacity:0"/>
	</radialGradient>
	<ellipse class="st0" cx="558.8" cy="178.2" rx="31.2" ry="10.3"/>
	
		<ellipse transform="matrix(-0.7227 -0.6912 0.6912 -0.7227 1110.9987 564.1918)" class="st1" cx="668.7" cy="59.2" rx="10.2" ry="77.7"/>
	<path class="st2" d="M642,98.9c-14.2,12.1-24.6,18.8-27,16.5c-1.9-1.9,1.8-9.3,9.4-19.9c1.7-2.4,3.7-5,5.8-7.7L642,98.9z"/>
	<line class="st2" x1="635.6" y1="104.6" x2="625.2" y2="94.6"/>
	<line class="st2" x1="628.5" y1="109.6" x2="620.2" y2="101.6"/>
	<path class="st3" d="M619.8,148c-2.8,2.9-6.1,5-9.6,6.4c0,0,0,0,0,0c-5.1,2.7-16.7,4.2-27.7,7.6c-12.4,3.8-23,11.9-23.6,12.4l0,0
		c0,0,0,0,0,0c0.5-0.7,8-11.6,11.3-24.2c2.5-9.7,3.6-19.8,5.5-25.7c0,0,0,0,0,0c1-4.5,3.2-8.8,6.6-12.4c9.9-10.4,26.4-10.8,36.8-0.8
		C629.4,121.1,629.8,137.6,619.8,148z"/>
	<circle class="st4" cx="601.7" cy="129.2" r="10.2"/>
	<rect x="0" y="13.4" class="st5" width="620.2" height="83.2"/>
	<text transform="matrix(1 0 0 1 1.220703e-04 81.2588)" class="st6 st7 st8">PUBLIC ARTS</text>
	<rect x="88.8" y="115.9" class="st5" width="577.3" height="79.1"/>
	<text transform="matrix(1 0 0 1 88.8239 162.2845)" class="st6 st9 st10">by public smarts</text>
</g>
</svg>
