<?xml version="1.0" encoding="utf-8"?>
<!-- Generator: Adobe Illustrator 19.1.0, SVG Export Plug-In . SVG Version: 6.00 Build 0)  -->
<svg version="1.1" id="Layer_1" xmlns="http://www.w3.org/2000/svg" xmlns:xlink="http://www.w3.org/1999/xlink" x="0px" y="0px"
	 viewBox="0 0 133.9 82.7" style="enable-background:new 0 0 133.9 82.7;" xml:space="preserve">
<style type="text/css">
	.st0{fill:#D0D2D3;}
	.st1{fill:none;stroke:#D0D2D3;stroke-miterlimit:10;}
	.st2{opacity:0.5;fill:url(#SVGID_1_);stroke:url(#SVGID_2_);stroke-miterlimit:10;}
	.st3{opacity:0.5;fill:url(#SVGID_3_);stroke:url(#SVGID_4_);stroke-miterlimit:10;}
	.st4{opacity:0.5;fill:url(#SVGID_5_);stroke:url(#SVGID_6_);stroke-miterlimit:10;}
	.st5{opacity:0.5;fill:url(#SVGID_7_);stroke:url(#SVGID_8_);stroke-miterlimit:10;}
	.st6{opacity:0.5;fill:url(#SVGID_9_);stroke:url(#SVGID_10_);stroke-miterlimit:10;}
	.st7{fill:#4154A3;}
	.st8{fill:#6D6E70;stroke:#404041;stroke-width:0.5;stroke-miterlimit:10;}
	.st9{fill:#D0D2D3;stroke:#404041;stroke-width:0.5;stroke-miterlimit:10;}
	.st10{fill:#F1623E;stroke:#404041;stroke-miterlimit:10;}
	.st11{fill:#58595B;stroke:#404041;stroke-miterlimit:10;}
</style>
<g>
	<g>
		<path class="st0" d="M68.5,48.5c-8,0-13.1,1.1-13.1,4c0,0.4,0.1,0.8,0.3,1.2c1.2-2,6-2.9,12.8-2.9c6.8,0,11.5,2,12.7,4.4
			c0.2-0.3,0.3-0.7,0.3-1.1C81.6,51.3,76.5,48.5,68.5,48.5z M109.6,69.9c-0.5,1.6-2.2,3.4-5.1,4.7c-11.8,5.3-20.3,5.7-37.6,5.7
			C31,80.4,1.8,66.4,0.5,49c0,0.4,0,0.8,0,1.2c0,18,29.7,32.5,66.4,32.5c17.2,0,25.8-0.4,37.6-5.7C108.9,75,110.4,72.1,109.6,69.9z
			 M133.3,48.9c-0.4,2.9-3.5,10.7-24.1,7c-17.1-3.1-18.9-0.4-17.4,2.1c1.3-1.4,5.8-1.9,17.4,0.2c21.2,3.8,23.9-4.5,24.2-7.2v0
			c0-0.3,0-0.5,0-0.8C133.3,49.8,133.3,49.3,133.3,48.9z"/>
		<path class="st1" d="M81.2,55.3c-1.3,1.9-6.1,2.1-12.9,2.1c-6.8,0-11.4-1.4-12.6-3.6 M81.2,55.3c-1.3,1.9-6.1,2.1-12.9,2.1
			c-6.8,0-11.4-1.4-12.6-3.6 M109.6,69.9c0.8-2.3-0.6-4.4-3.8-5c-7.8-1.6-10.6-3.6-10.6-3.6c-0.8-0.4-2.6-1.8-3.5-3.2 M133.3,48.9
			c0-0.1,0-0.2,0-0.2v0c0-0.3,0-0.5,0-0.8c0-18-29.7-27.7-66.4-27.7c-36.7,0-66.4,9.8-66.4,27.7c0,0.4,0,0.8,0,1.2"/>
	</g>
	
		<radialGradient id="SVGID_1_" cx="41.145" cy="67.4887" r="17.0619" gradientTransform="matrix(1 0 0 0.4 0 40.4932)" gradientUnits="userSpaceOnUse">
		<stop  offset="0.1327" style="stop-color:#F1623E"/>
		<stop  offset="0.5714" style="stop-color:#F1623E;stop-opacity:0.8353"/>
		<stop  offset="1" style="stop-color:#D0D2D3;stop-opacity:0"/>
	</radialGradient>
	
		<radialGradient id="SVGID_2_" cx="41.145" cy="2.9594" r="23.4061" gradientTransform="matrix(1 0 0 0.3311 0 66.5088)" gradientUnits="userSpaceOnUse">
		<stop  offset="0" style="stop-color:#808184"/>
		<stop  offset="0.1806" style="stop-color:#FFFFFF;stop-opacity:0"/>
		<stop  offset="0.6606" style="stop-color:#FFFFFF;stop-opacity:0"/>
	</radialGradient>
	<ellipse class="st2" cx="41.1" cy="67.5" rx="22.9" ry="7.6"/>
	
		<radialGradient id="SVGID_3_" cx="24.5279" cy="48.5763" r="17.0619" gradientTransform="matrix(1 0 0 0.4 0 29.1458)" gradientUnits="userSpaceOnUse">
		<stop  offset="0.134" style="stop-color:#FAF3A1"/>
		<stop  offset="0.5714" style="stop-color:#FAF3A1;stop-opacity:0.8353"/>
		<stop  offset="1" style="stop-color:#D0D2D3;stop-opacity:0"/>
	</radialGradient>
	
		<radialGradient id="SVGID_4_" cx="24.5279" cy="-54.1559" r="23.4061" gradientTransform="matrix(1 0 0 0.3311 0 66.5088)" gradientUnits="userSpaceOnUse">
		<stop  offset="0" style="stop-color:#808184"/>
		<stop  offset="0.1806" style="stop-color:#FFFFFF;stop-opacity:0"/>
		<stop  offset="0.6606" style="stop-color:#FFFFFF;stop-opacity:0"/>
	</radialGradient>
	<ellipse class="st3" cx="24.5" cy="48.6" rx="22.9" ry="7.6"/>
	
		<radialGradient id="SVGID_5_" cx="48.6113" cy="31.7417" r="17.0619" gradientTransform="matrix(1 0 0 0.4 0 19.045)" gradientUnits="userSpaceOnUse">
		<stop  offset="0.1327" style="stop-color:#C0DD9D"/>
		<stop  offset="0.5714" style="stop-color:#C0DD9D;stop-opacity:0.8353"/>
		<stop  offset="1" style="stop-color:#D0D2D3;stop-opacity:0"/>
	</radialGradient>
	
		<radialGradient id="SVGID_6_" cx="48.6113" cy="-104.9964" r="23.4061" gradientTransform="matrix(1 0 0 0.3311 0 66.5088)" gradientUnits="userSpaceOnUse">
		<stop  offset="0" style="stop-color:#808184"/>
		<stop  offset="0.1806" style="stop-color:#FFFFFF;stop-opacity:0"/>
		<stop  offset="0.6606" style="stop-color:#FFFFFF;stop-opacity:0"/>
	</radialGradient>
	<ellipse class="st4" cx="48.6" cy="31.7" rx="22.9" ry="7.6"/>
	
		<radialGradient id="SVGID_7_" cx="81.575" cy="32.9551" r="17.0619" gradientTransform="matrix(1 0 0 0.4 0 19.7731)" gradientUnits="userSpaceOnUse">
		<stop  offset="0.1327" style="stop-color:#7ABE90"/>
		<stop  offset="0.5714" style="stop-color:#7ABE90;stop-opacity:0.8353"/>
		<stop  offset="1" style="stop-color:#D0D2D3;stop-opacity:0"/>
	</radialGradient>
	
		<radialGradient id="SVGID_8_" cx="81.575" cy="-101.3319" r="23.4061" gradientTransform="matrix(1 0 0 0.3311 0 66.5088)" gradientUnits="userSpaceOnUse">
		<stop  offset="0" style="stop-color:#808184"/>
		<stop  offset="0.1806" style="stop-color:#FFFFFF;stop-opacity:0"/>
		<stop  offset="0.6606" style="stop-color:#FFFFFF;stop-opacity:0"/>
	</radialGradient>
	<ellipse class="st5" cx="81.6" cy="33" rx="22.9" ry="7.6"/>
	
		<radialGradient id="SVGID_9_" cx="110.4822" cy="45.6642" r="17.0619" gradientTransform="matrix(1 0 0 0.4 0 27.3985)" gradientUnits="userSpaceOnUse">
		<stop  offset="0.1327" style="stop-color:#00A287"/>
		<stop  offset="0.5714" style="stop-color:#00A287;stop-opacity:0.8353"/>
		<stop  offset="1" style="stop-color:#D0D2D3;stop-opacity:0"/>
	</radialGradient>
	
		<radialGradient id="SVGID_10_" cx="110.4822" cy="-62.9507" r="23.4061" gradientTransform="matrix(1 0 0 0.3311 0 66.5088)" gradientUnits="userSpaceOnUse">
		<stop  offset="0" style="stop-color:#808184"/>
		<stop  offset="0.1806" style="stop-color:#FFFFFF;stop-opacity:0"/>
		<stop  offset="0.6606" style="stop-color:#FFFFFF;stop-opacity:0"/>
	</radialGradient>
	<ellipse class="st6" cx="110.5" cy="45.7" rx="22.9" ry="7.6"/>
	<path class="st7" d="M53.1,11.7C53.1,11.7,53.1,11.7,53.1,11.7L53.1,11.7C53.1,11.6,53.1,11.7,53.1,11.7z"/>
	<ellipse transform="matrix(-0.7227 -0.6912 0.6912 -0.7227 126.4903 95.4289)" class="st8" cx="82.4" cy="22.3" rx="4" ry="30.3"/>
	<path class="st9" d="M72,37.8c-5.5,4.7-9.6,7.3-10.5,6.4c-0.8-0.7,0.7-3.6,3.7-7.8c0.7-0.9,1.4-2,2.3-3L72,37.8z"/>
	<line class="st9" x1="69.5" y1="40.1" x2="65.4" y2="36.2"/>
	<line class="st9" x1="66.7" y1="42" x2="63.4" y2="38.9"/>
	<path class="st10" d="M63.3,57c-1.1,1.1-2.4,2-3.8,2.5c0,0,0,0,0,0c-2,1-6.5,1.6-10.8,3c-4.8,1.5-9,4.6-9.2,4.8l0,0c0,0,0,0,0,0
		c0.2-0.3,3.1-4.5,4.4-9.4c1-3.8,1.4-7.7,2.1-10c0,0,0,0,0,0c0.4-1.8,1.2-3.4,2.6-4.8c3.9-4.1,10.3-4.2,14.4-0.3
		C67.1,46.5,67.2,52.9,63.3,57z"/>
	<circle class="st11" cx="56.2" cy="49.7" r="4"/>
</g>
</svg>
