<?xml version="1.0" encoding="utf-8"?>
<!-- Generator: Adobe Illustrator 19.1.0, SVG Export Plug-In . SVG Version: 6.00 Build 0)  -->
<svg version="1.1" id="Layer_1" xmlns="http://www.w3.org/2000/svg" xmlns:xlink="http://www.w3.org/1999/xlink" x="0px" y="0px"
	 viewBox="0 0 38.8 62.5" style="enable-background:new 0 0 38.8 62.5;" xml:space="preserve">
<style type="text/css">
	.st0{opacity:0.25;fill:url(#SVGID_1_);stroke:url(#SVGID_2_);stroke-miterlimit:10;}
	.st1{opacity:0.25;fill:url(#SVGID_3_);stroke:url(#SVGID_4_);stroke-miterlimit:10;}
	.st2{opacity:0.25;fill:url(#SVGID_5_);stroke:url(#SVGID_6_);stroke-miterlimit:10;}
	.st3{opacity:0.25;fill:url(#SVGID_7_);stroke:url(#SVGID_8_);stroke-miterlimit:10;}
	.st4{opacity:0.25;fill:url(#SVGID_9_);stroke:url(#SVGID_10_);stroke-miterlimit:10;}
	.st5{fill:#BFDD9D;stroke:#404041;stroke-miterlimit:10;}
	.st6{fill:#79BD8F;stroke:#404041;stroke-miterlimit:10;}
	.st7{fill:#00A287;stroke:#404041;stroke-miterlimit:10;}
	.st8{fill:#FBF39F;stroke:#404041;stroke-miterlimit:10;}
	.st9{fill:#F1623E;stroke:#404041;stroke-miterlimit:10;}
	.st10{fill:#4154A3;}
	.st11{fill:#58595B;stroke:#404041;stroke-miterlimit:10;}
</style>
<radialGradient id="SVGID_1_" cx="19.375" cy="3.5835" r="18.875" gradientTransform="matrix(1 0 0 0.3311 0 54.5349)" gradientUnits="userSpaceOnUse">
	<stop  offset="0" style="stop-color:#808184"/>
	<stop  offset="0.9987" style="stop-color:#FFFFFF"/>
</radialGradient>
<radialGradient id="SVGID_2_" cx="19.375" cy="3.5835" r="19.375" gradientTransform="matrix(1 0 0 0.3311 0 54.5349)" gradientUnits="userSpaceOnUse">
	<stop  offset="0" style="stop-color:#808184"/>
	<stop  offset="0.1806" style="stop-color:#FFFFFF;stop-opacity:0"/>
	<stop  offset="0.6606" style="stop-color:#FFFFFF;stop-opacity:0"/>
</radialGradient>
<ellipse class="st0" cx="19.4" cy="55.7" rx="18.9" ry="6.2"/>
<path class="st5" d="M35.1,16.3c0,2.4-0.6,4.8-1.5,6.8c0,0,0,0,0,0c-1.1,3.3-5.6,8.8-9,14.9c-3.8,6.9-5.1,14.8-5.2,15.3l0,0
	c0,0,0,0,0,0c-0.1-0.5-1.3-8.4-5.2-15.3c-3-5.3-6.7-10.2-8.4-13.5c0,0,0,0,0,0c-1.4-2.4-2.3-5.2-2.3-8.2c0-8.7,7.1-15.8,15.8-15.8
	C28.1,0.5,35.1,7.6,35.1,16.3z"/>
<circle class="st11" cx="19.4" cy="15.6" r="6.2"/>
</svg>
